<?xml version="1.0" encoding="utf-8"?>
<!-- Generator: Adobe Illustrator 16.0.0, SVG Export Plug-In . SVG Version: 6.00 Build 0)  -->
<!DOCTYPE svg PUBLIC "-//W3C//DTD SVG 1.1//EN" "http://www.w3.org/Graphics/SVG/1.1/DTD/svg11.dtd">
<svg version="1.1" id="Layer_1" xmlns="http://www.w3.org/2000/svg" xmlns:xlink="http://www.w3.org/1999/xlink" x="0px" y="0px"
	 width="216px" height="36px" viewBox="0 0 216 36" enable-background="new 0 0 216 36" xml:space="preserve">
<g>
	<path fill="#787878" d="M5.088,18.065v-0.066c0-6.784,5.222-12.106,12.272-12.106c4.755,0,7.814,1.997,9.876,4.856l-4.856,3.759
		c-1.33-1.664-2.86-2.727-5.089-2.727c-3.259,0-5.554,2.761-5.554,6.153v0.067c0,3.493,2.295,6.22,5.554,6.22
		c2.428,0,3.858-1.133,5.256-2.828l4.856,3.461c-2.195,3.025-5.154,5.254-10.31,5.254C10.442,30.105,5.088,25.016,5.088,18.065z"/>
	<path fill="#787878" d="M28.697,18.065v-0.066c0-6.684,5.387-12.106,12.571-12.106s12.504,5.354,12.504,12.04v0.066
		c0,6.685-5.389,12.106-12.57,12.106C34.018,30.105,28.697,24.75,28.697,18.065z M47.188,18.065v-0.066
		c0-3.358-2.428-6.284-5.986-6.284c-3.525,0-5.887,2.86-5.887,6.219v0.067c0,3.358,2.428,6.286,5.953,6.286
		C44.827,24.283,47.188,21.422,47.188,18.065z"/>
	<path fill="#787878" d="M56.328,18.065v-0.066c0-6.784,5.221-12.106,12.272-12.106c4.755,0,7.814,1.997,9.876,4.856l-4.856,3.759
		c-1.33-1.664-2.86-2.727-5.087-2.727c-3.26,0-5.555,2.761-5.555,6.153v0.067c0,3.493,2.294,6.22,5.555,6.22
		c2.427,0,3.857-1.133,5.254-2.828l4.856,3.461c-2.196,3.025-5.155,5.254-10.31,5.254C61.682,30.105,56.328,25.016,56.328,18.065z"
		/>
	<path fill="#787878" d="M81.399,6.359h6.452v9.444l8.015-9.444h7.649L94.702,16.37l9.112,13.269h-7.75l-5.854-8.646l-2.362,2.629
		v6.021h-6.452L81.399,6.359L81.399,6.359z"/>
	<path fill="#787878" d="M103.045,18.065v-0.066c0-6.784,5.221-12.106,12.271-12.106c4.756,0,7.813,1.997,9.879,4.856l-4.857,3.759
		c-1.328-1.664-2.859-2.727-5.088-2.727c-3.258,0-5.553,2.761-5.553,6.153v0.067c0,3.493,2.295,6.22,5.553,6.22
		c2.43,0,3.857-1.133,5.256-2.828l4.854,3.461c-2.193,3.025-5.154,5.254-10.31,5.254C108.4,30.105,103.045,25.016,103.045,18.065z"
		/>
	<path fill="#787878" d="M128.116,6.359h11.009c3.557,0,6.02,0.932,7.582,2.527c1.363,1.331,2.063,3.126,2.063,5.421v0.066
		c0,3.559-1.896,5.919-4.789,7.15l5.556,8.115h-7.45l-4.688-7.052h-0.066h-2.76v7.052h-6.452L128.116,6.359L128.116,6.359z
		 M138.825,17.533c2.194,0,3.458-1.065,3.458-2.761v-0.066c0-1.829-1.328-2.761-3.49-2.761h-4.225v5.587L138.825,17.533
		L138.825,17.533z"/>
	<path fill="#787878" d="M151.225,18.065v-0.066c0-6.684,5.391-12.106,12.57-12.106c7.184,0,12.506,5.354,12.506,12.04v0.066
		c0,6.685-5.389,12.106-12.572,12.106C156.546,30.105,151.225,24.75,151.225,18.065z M169.715,18.065v-0.066
		c0-3.358-2.427-6.284-5.986-6.284c-3.522,0-5.885,2.86-5.885,6.219v0.067c0,3.358,2.426,6.286,5.952,6.286
		C167.355,24.283,169.715,21.422,169.715,18.065z"/>
	<path fill="#787878" d="M176.76,6.359h6.818l4.059,13.469l4.488-13.537h5.555l4.49,13.537l4.057-13.469h6.687l-7.781,23.446h-5.62
		l-4.688-13.402l-4.656,13.402h-5.622L176.76,6.359z"/>
</g>
</svg>
